<?xml version="1.0" standalone="no"?>
<!DOCTYPE svg PUBLIC "-//W3C//DTD SVG 20010904//EN" "http://www.w3.org/TR/2001/REC-SVG-20010904/DTD/svg10.dtd">
<svg version="1.0" xmlns="http://www.w3.org/2000/svg" width="192.000000pt" height="192.000000pt" viewBox="0 0 192.000000 192.000000" preserveAspectRatio="xMidYMid meet">
    <metadata>
Created by potrace 1.14, written by Peter Selinger 2001-2017
</metadata>
    <g transform="translate(0.000000,192.000000) scale(0.100000,-0.100000)" fill="#000000" stroke="none">
        <path d="M290 1909 c-58 -16 -118 -50 -164 -93 -59 -56 -85 -97 -107 -168 -18
-56 -19 -102 -19 -681 0 -389 4 -639 11 -667 22 -98 75 -174 161 -233 98 -67
100 -67 794 -67 577 0 627 1 682 18 130 41 233 152 261 281 15 69 15 1257 0
1321 -22 98 -75 174 -161 233 -98 67 -100 67 -798 66 -351 -1 -640 -5 -660
-10z" />
    </g>
</svg>